<svg xmlns="http://www.w3.org/2000/svg" viewBox="0 0 1200 560" fill="none">

<defs>
  <linearGradient id="mist" x1="0" y1="0" x2="1" y2="0">
    <stop offset="0" stop-color="#c9d7e2" stop-opacity="0"/>
    <stop offset="0.20" stop-color="#c9d7e2" stop-opacity=".22"/>
    <stop offset="0.52" stop-color="#b7c9d8" stop-opacity=".30"/>
    <stop offset="0.84" stop-color="#c9d7e2" stop-opacity=".16"/>
    <stop offset="1" stop-color="#c9d7e2" stop-opacity="0"/>
  </linearGradient>
  <linearGradient id="fadeUp" x1="0" y1="0" x2="0" y2="1">
    <stop offset="0" stop-color="#eff4f7" stop-opacity=".55"/>
    <stop offset=".55" stop-color="#d6e1e9" stop-opacity=".18"/>
    <stop offset="1" stop-color="#d6e1e9" stop-opacity="0"/>
  </linearGradient>
  <filter id="soft" x="-20%" y="-20%" width="140%" height="140%">
    <feGaussianBlur stdDeviation="10"/>
  </filter>
  <filter id="soft2" x="-20%" y="-20%" width="140%" height="140%">
    <feGaussianBlur stdDeviation="3"/>
  </filter>
  <pattern id="microgrid" width="32" height="32" patternUnits="userSpaceOnUse">
    <path d="M32 0H0V32" fill="none" stroke="#7b9ab3" stroke-opacity=".08" stroke-width="1"/>
  </pattern>
  <pattern id="dots" width="16" height="16" patternUnits="userSpaceOnUse">
    <circle cx="2" cy="2" r=".65" fill="#4f80a6" fill-opacity=".18"/>
  </pattern>
  <mask id="softMask">
    <rect width="100%" height="100%" fill="url(#fadeUp)"/>
  </mask>
</defs>

<!-- light entry archive residue; intentionally sparse -->
<rect x="42" y="104" width="330" height="274" rx="0" fill="url(#microgrid)" opacity=".55"/>
<rect x="70" y="162" width="248" height="132" fill="#d3e0e8" opacity=".10" filter="url(#soft2)"/>
<path d="M18 399 C155 372 228 393 332 366 C440 338 520 366 616 352" stroke="#91abc0" stroke-opacity=".16" stroke-width="2"/>
<path d="M24 421 C160 394 244 422 344 392 C432 365 530 388 642 374" stroke="#b4c7d6" stroke-opacity=".20" stroke-width="1.5"/>
<path d="M462 76 V346 M430 108 H630" stroke="#7e9cb4" stroke-opacity=".16" stroke-width="1"/>
<path d="M462 76 h12 M462 76 v12 M462 346 h12 M462 346 v-12" stroke="#4f7fa3" stroke-opacity=".36" stroke-width="1.5"/>
<path d="M836 120 A118 118 0 0 1 1010 205" stroke="#8ea9bd" stroke-opacity=".16" stroke-width="1.5"/>
<path d="M872 154 A75 75 0 0 1 982 207" stroke="#4f7fa3" stroke-opacity=".22" stroke-width="1"/>
<path d="M1003 206 h70 M1038 171 v70" stroke="#4f7fa3" stroke-opacity=".24" stroke-width="1"/>
<g opacity=".36">
 <path d="M720 300 h210 M756 284 v36 M876 284 v36" stroke="#6f91ab" stroke-width="1"/>
 <path d="M701 334 h260" stroke="#93adc0" stroke-width="1" stroke-dasharray="2 7"/>
</g>
<rect x="0" y="330" width="900" height="130" fill="url(#mist)" filter="url(#soft)"/>
<rect x="64" y="426" width="250" height="58" fill="url(#dots)" opacity=".55"/>
<g fill="#4f7fa3" fill-opacity=".3">
  <rect x="332" y="322" width="5" height="5"/><rect x="352" y="308" width="3" height="3"/>
  <rect x="622" y="195" width="4" height="4"/><rect x="692" y="262" width="3" height="3"/>
  <rect x="1070" y="268" width="4" height="4"/>
</g>
</svg>
