<svg xmlns="http://www.w3.org/2000/svg" width="240" height="240" viewBox="0 0 240 240" fill="none">
  <defs>
    <symbol id="anchor-dot" viewBox="-12 -12 24 24">
      <circle cx="0" cy="0" r="5" fill="#1268F4"/>
      <circle cx="0" cy="0" r="9" stroke="#1268F4" stroke-width="1.5" opacity="0.45"/>
    </symbol>

    <symbol id="anchor-square" viewBox="-12 -12 24 24">
      <rect x="-5.5" y="-5.5" width="11" height="11" fill="#F8FBFF" stroke="#1268F4" stroke-width="2"/>
      <rect x="-9" y="-9" width="18" height="18" stroke="#1268F4" stroke-width="1" opacity="0.35"/>
    </symbol>

    <symbol id="anchor-diamond" viewBox="-12 -12 24 24">
      <path d="M0 -7L7 0L0 7L-7 0Z" fill="#1268F4"/>
      <path d="M0 -10L10 0L0 10L-10 0Z" stroke="#1268F4" stroke-width="1" opacity="0.35"/>
    </symbol>

    <symbol id="crop-corners" viewBox="0 0 80 50">
      <path d="M1 13V1H13M67 1H79V13M79 37V49H67M13 49H1V37" stroke="#1268F4" stroke-width="1.5" stroke-linecap="square" opacity="0.72"/>
    </symbol>

    <symbol id="thin-window-frame" viewBox="0 0 120 70">
      <rect x="0.75" y="0.75" width="118.5" height="68.5" stroke="#1268F4" stroke-width="1.5"/>
      <path d="M0 18H120" stroke="#15191E" stroke-width="6"/>
    </symbol>

    <symbol id="leader-kink" viewBox="0 0 90 42">
      <path d="M1 40H35L88 2" stroke="#1268F4" stroke-width="1.4"/>
      <circle cx="1" cy="40" r="2.8" fill="#1268F4"/>
    </symbol>

    <symbol id="micro-scale" viewBox="0 0 120 20">
      <path d="M0 10H120" stroke="#406B90" stroke-width="1" opacity="0.55"/>
      <path d="M0 4V16M20 7V13M40 7V13M60 4V16M80 7V13M100 7V13M120 4V16" stroke="#406B90" stroke-width="1" opacity="0.55"/>
    </symbol>

    <symbol id="partial-datum" viewBox="-60 -60 120 120">
      <path d="M40.8 -29.6A50 50 0 0 1 15.5 47.6" stroke="#1268F4" stroke-width="1.2" opacity="0.35"/>
      <path d="M-46.9 17.1A50 50 0 0 1 -15.5 -47.6" stroke="#1268F4" stroke-width="1.2" opacity="0.22"/>
      <path d="M-32 0H32M0 -32V32" stroke="#1268F4" stroke-width="1" opacity="0.22"/>
      <circle cx="0" cy="0" r="3" fill="#1268F4" opacity="0.42"/>
    </symbol>
  </defs>

  <g transform="translate(30 30)"><use href="#anchor-dot"/></g>
  <g transform="translate(78 30)"><use href="#anchor-square"/></g>
  <g transform="translate(126 30)"><use href="#anchor-diamond"/></g>
  <g transform="translate(20 64)"><use href="#crop-corners"/></g>
  <g transform="translate(20 126)"><use href="#thin-window-frame"/></g>
  <g transform="translate(146 76)"><use href="#leader-kink"/></g>
  <g transform="translate(110 168)"><use href="#micro-scale"/></g>
  <g transform="translate(190 190)"><use href="#partial-datum"/></g>
</svg>