<svg xmlns="http://www.w3.org/2000/svg" width="320" height="220" viewBox="0 0 320 220" fill="none">
  <defs>
    <symbol id="node-ring-small" viewBox="-16 -16 32 32">
      <circle cx="0" cy="0" r="11" fill="#F8FBFF" stroke="#1268F4" stroke-width="2"/>
      <circle cx="0" cy="0" r="4" fill="#1268F4"/>
      <circle cx="0" cy="0" r="15" stroke="#F8FBFF" stroke-width="1.5" opacity="0.75"/>
    </symbol>
    <symbol id="node-ring-main" viewBox="-22 -22 44 44">
      <circle cx="0" cy="0" r="15" fill="#F8FBFF" stroke="#1268F4" stroke-width="2.5"/>
      <circle cx="0" cy="0" r="6" fill="#1268F4"/>
      <circle cx="0" cy="0" r="20" stroke="#F8FBFF" stroke-width="1.5" opacity="0.80"/>
      <path d="M0 -22V-17M0 17V22M-22 0H-17M17 0H22" stroke="#1268F4" stroke-width="1.3"/>
    </symbol>
    <symbol id="terminal-square" viewBox="-18 -18 36 36">
      <rect x="-9" y="-9" width="18" height="18" fill="#F8FBFF" stroke="#1268F4" stroke-width="2.5"/>
      <path d="M-18 0H-12M12 0H18M0 -18V-12M0 12V18" stroke="#1268F4" stroke-width="1.5"/>
    </symbol>
    <symbol id="leader-tail" viewBox="0 0 100 30">
      <path d="M1 15H68L98 2" stroke="#1268F4" stroke-width="1.8"/>
      <circle cx="1" cy="15" r="2.4" fill="#1268F4"/>
    </symbol>
  </defs>
  <g transform="translate(40 42)"><use href="#node-ring-small"/></g>
  <g transform="translate(95 42)"><use href="#node-ring-main"/></g>
  <g transform="translate(155 42)"><use href="#terminal-square"/></g>
  <g transform="translate(24 88)"><use href="#leader-tail"/></g>
</svg>